<svg xmlns="http://www.w3.org/2000/svg" viewBox="0 0 1440 320"><path fill="#458bba" fill-opacity="1" d="M0,64L30,64C60,64,120,64,180,96C240,128,300,192,360,181.3C420,171,480,85,540,85.3C600,85,660,171,720,192C780,213,840,171,900,154.7C960,139,1020,149,1080,160C1140,171,1200,181,1260,186.7C1320,192,1380,192,1410,192L1440,192L1440,320L1410,320C1380,320,1320,320,1260,320C1200,320,1140,320,1080,320C1020,320,960,320,900,320C840,320,780,320,720,320C660,320,600,320,540,320C480,320,420,320,360,320C300,320,240,320,180,320C120,320,60,320,30,320L0,320Z"></path></svg>